<svg xmlns="http://www.w3.org/2000/svg" viewBox="0 0 1000 200" preserveAspectRatio="none"><path d="M30.0 59.5 L35.9 58.3 L41.8 51.3 L47.6 45.6 L53.5 43.8 L59.4 37.9 L65.2 34.2 L71.1 34.6 L77.0 33.9 L82.9 29.4 L88.8 26.6 L94.6 32.6 L100.5 29.7 L106.4 26.8 L112.2 29.8 L118.1 32.3 L124.0 33.5 L129.9 32.0 L135.8 34.6 L141.6 32.5 L147.5 27.5 L153.4 29.8 L159.2 34.9 L165.1 36.2 L171.0 37.9 L176.9 29.7 L182.8 32.9 L188.6 32.9 L194.5 22.2 L200.4 26.2 L206.2 25.1 L212.1 30.2 L218.0 23.6 L223.9 24.4 L229.8 34.2 L235.6 31.9 L241.5 28.0 L247.4 28.8 L253.2 29.7 L259.1 30.3 L265.0 34.4 L270.9 29.0 L276.8 24.5 L282.6 29.5 L288.5 25.8 L294.4 26.5 L300.2 30.1 L306.1 23.9 L312.0 22.2 L317.9 25.9 L323.8 26.0 L329.6 29.5 L335.5 25.1 L341.4 19.5 L347.2 26.2 L353.1 23.1 L359.0 29.2 L364.9 28.4 L370.8 30.4 L376.6 23.6 L382.5 21.0 L388.4 23.5 L394.2 27.0 L400.1 30.8 L406.0 27.9 L411.9 26.2 L417.8 28.4 L423.6 26.6 L429.5 24.2 L435.4 21.9 L441.2 29.6 L447.1 32.6 L453.0 35.6 L458.9 31.0 L464.8 29.6 L470.6 25.0 L476.5 23.8 L482.4 22.6 L488.2 30.0 L494.1 27.3 L500.0 28.3 L505.9 27.9 L511.7 28.2 L517.6 30.7 L523.5 31.1 L529.4 33.5 L535.2 31.1 L541.1 30.1 L547.0 23.7 L552.9 25.9 L558.8 27.7 L564.6 32.0 L570.5 31.3 L576.4 36.2 L582.2 33.7 L588.1 35.0 L594.0 35.0 L599.9 31.3 L605.8 27.4 L611.6 25.1 L617.5 25.3 L623.4 23.8 L629.2 25.8 L635.1 29.5 L641.0 27.7 L646.9 33.8 L652.8 30.9 L658.6 32.4 L664.5 31.0 L670.4 32.8 L676.2 29.6 L682.1 23.8 L688.0 20.2 L693.9 25.3 L699.8 28.4 L705.6 23.1 L711.5 21.2 L717.4 21.2 L723.2 27.0 L729.1 26.6 L735.0 32.4 L740.9 25.9 L746.8 28.3 L752.6 24.5 L758.5 21.4 L764.4 20.0 L770.2 23.3 L776.1 26.5 L782.0 24.7 L787.9 32.2 L793.8 33.3 L799.6 33.0 L805.5 34.1 L811.4 33.2 L817.2 27.3 L823.1 28.5 L829.0 26.2 L834.9 31.9 L840.8 33.6 L846.6 32.5 L852.5 37.0 L858.4 35.8 L864.2 27.2 L870.1 25.8 L876.0 25.5 L881.9 31.7 L887.8 33.0 L893.6 34.3 L899.5 35.3 L905.4 34.3 L911.2 31.6 L917.1 35.5 L923.0 32.3 L928.9 33.5 L934.8 38.8 L940.6 37.3 L946.5 44.1 L952.4 46.5 L958.2 52.2 L964.1 58.3 L970.0 61.0 L970.0 140.3 L964.1 142.8 L958.2 149.2 L952.4 153.6 L946.5 161.7 L940.6 164.3 L934.8 166.3 L928.9 169.6 L923.0 169.0 L917.1 168.4 L911.2 167.3 L905.4 166.6 L899.5 167.2 L893.6 164.9 L887.8 170.2 L881.9 172.7 L876.0 173.7 L870.1 177.1 L864.2 170.7 L858.4 169.3 L852.5 165.1 L846.6 171.6 L840.8 172.2 L834.9 173.1 L829.0 175.2 L823.1 174.6 L817.2 173.4 L811.4 168.9 L805.5 169.3 L799.6 173.8 L793.8 167.2 L787.9 163.4 L782.0 162.5 L776.1 163.3 L770.2 160.9 L764.4 161.2 L758.5 165.6 L752.6 164.9 L746.8 161.4 L740.9 161.6 L735.0 165.0 L729.1 170.0 L723.2 169.8 L717.4 174.1 L711.5 177.4 L705.6 176.0 L699.8 178.1 L693.9 180.1 L688.0 177.6 L682.1 175.8 L676.2 173.0 L670.4 172.8 L664.5 168.0 L658.6 169.3 L652.8 173.4 L646.9 171.3 L641.0 169.4 L635.1 171.6 L629.2 171.9 L623.4 182.1 L617.5 178.9 L611.6 176.8 L605.8 174.4 L599.9 170.9 L594.0 168.3 L588.1 167.4 L582.2 167.9 L576.4 171.3 L570.5 170.3 L564.6 172.9 L558.8 176.5 L552.9 180.7 L547.0 181.3 L541.1 178.1 L535.2 172.3 L529.4 172.2 L523.5 171.2 L517.6 172.5 L511.7 169.5 L505.9 174.1 L500.0 172.7 L494.1 170.8 L488.2 174.2 L482.4 176.2 L476.5 169.1 L470.6 174.5 L464.8 173.0 L458.9 169.9 L453.0 162.4 L447.1 164.2 L441.2 165.8 L435.4 170.8 L429.5 172.9 L423.6 168.9 L417.8 168.9 L411.9 163.3 L406.0 165.1 L400.1 163.2 L394.2 169.5 L388.4 173.3 L382.5 176.8 L376.6 171.0 L370.8 169.0 L364.9 167.6 L359.0 168.4 L353.1 165.7 L347.2 169.1 L341.4 166.8 L335.5 167.5 L329.6 163.5 L323.8 163.6 L317.9 163.8 L312.0 166.3 L306.1 163.5 L300.2 164.0 L294.4 167.2 L288.5 175.1 L282.6 176.3 L276.8 177.5 L270.9 177.5 L265.0 176.9 L259.1 174.5 L253.2 176.1 L247.4 178.2 L241.5 179.5 L235.6 175.7 L229.8 171.2 L223.9 173.6 L218.0 174.1 L212.1 174.8 L206.2 171.8 L200.4 175.1 L194.5 178.9 L188.6 173.9 L182.8 174.8 L176.9 171.6 L171.0 173.2 L165.1 170.3 L159.2 169.4 L153.4 168.4 L147.5 171.3 L141.6 171.7 L135.8 171.7 L129.9 166.7 L124.0 167.9 L118.1 168.4 L112.2 170.0 L106.4 167.0 L100.5 164.0 L94.6 163.1 L88.8 166.9 L82.9 169.2 L77.0 166.3 L71.1 156.9 L65.2 158.4 L59.4 152.4 L53.5 153.5 L47.6 148.8 L41.8 147.0 L35.9 142.6 L30.0 138.7Z" fill="#000"/><path d="M885.9 32.1 L973.3 35.6 L977.3 37.1 L973.3 38.6 L885.9 42.2Z" fill="#000"/><path d="M907.6 53.5 L956.2 56.5 L960.2 57.7 L956.2 59.0 L907.6 61.9Z" fill="#000"/><path d="M883.4 69.2 L985.1 72.3 L989.1 73.6 L985.1 74.9 L883.4 77.9Z" fill="#000"/><path d="M909.2 79.0 L968.4 82.0 L972.4 83.3 L968.4 84.6 L909.2 87.7Z" fill="#000"/><path d="M902.4 98.9 L981.5 101.6 L985.5 102.7 L981.5 103.9 L902.4 106.6Z" fill="#000"/><path d="M916.0 112.3 L985.7 116.1 L989.7 117.8 L985.7 119.4 L916.0 123.2Z" fill="#000"/><path d="M901.0 130.5 L971.1 132.8 L975.1 133.7 L971.1 134.7 L901.0 137.0Z" fill="#000"/><path d="M900.1 142.7 L969.8 144.5 L973.8 145.3 L969.8 146.1 L900.1 147.9Z" fill="#000"/><path d="M900.6 158.5 L978.0 162.2 L982.0 163.8 L978.0 165.3 L900.6 169.1Z" fill="#000"/><path d="M79.6 42.8 L24.7 44.7 L20.7 45.5 L24.7 46.3 L79.6 48.2Z" fill="#000"/><path d="M76.6 57.6 L32.7 61.6 L28.7 63.3 L32.7 65.0 L76.6 69.0Z" fill="#000"/><path d="M78.9 75.1 L7.8 77.9 L3.8 79.2 L7.8 80.4 L78.9 83.2Z" fill="#000"/><path d="M96.0 97.9 L18.3 100.4 L14.3 101.5 L18.3 102.6 L96.0 105.1Z" fill="#000"/><path d="M84.7 111.6 L31.8 113.6 L27.8 114.5 L31.8 115.4 L84.7 117.5Z" fill="#000"/><path d="M60.9 133.9 L9.8 136.2 L5.8 137.2 L9.8 138.2 L60.9 140.5Z" fill="#000"/><path d="M72.9 149.8 L14.7 153.1 L10.7 154.5 L14.7 155.9 L72.9 159.2Z" fill="#000"/></svg>
